<?xml version="1.0" encoding="utf-8"?>

<!DOCTYPE svg PUBLIC "-//W3C//DTD SVG 1.1//EN" "http://www.w3.org/Graphics/SVG/1.1/DTD/svg11.dtd">
<svg version="1.1" id="Layer_1" xmlns="http://www.w3.org/2000/svg" xmlns:xlink="http://www.w3.org/1999/xlink" x="0px" y="0px"
	 viewBox="-27 -24.0187 1974 1756.0375" enable-background="new -27 -24.0187 1974 1756.0375" xml:space="preserve">
<g>
	<path opacity="0.6" fill="#999999" stroke="#999999" stroke-width="0.4" enable-background="new    " d="M1200.15,3.07
		c2.11-1.28,4.53-0.67,6.75-0.04c7.64,8.38,0.91,22.65,3.09,32.97c3.4,10.35-16.39,10.35-12.98,0
		C1198.9399,25.55,1192.72,11.72,1200.15,3.07 M1200.3,5.05c-3.25,9.27-0.38,20.87-1.3101,30.95c-4.38,8.53,13.42,8.71,9.02,0
		C1204.25,27.59,1216.49,2.03,1200.3,5.05z"/>
	<path opacity="0.21" fill="#363636" stroke="#363636" stroke-width="0.4" enable-background="new    " d="M1196.0601,5.08
		c-0.05-2.23,2.48-2.17,4.09-2.01c-7.4301,8.65-1.2101,22.48-3.14,32.93c-3.41,10.35,16.38,10.35,12.98,0
		c-2.1799-10.32,4.55-24.59-3.09-32.97c1.4299,0.05,3.1799-0.31,3.99,1.26c0.09,12.83,0.39,25.69-0.02,38.51
		c-4.5599,3.64-10.22,3.54-14.65-0.23C1195.8199,30.08,1195.88,17.57,1196.0601,5.08z"/>
	<path fill="#FDFDFD" stroke="#FDFDFD" stroke-width="0.4" d="M1200.3,5.05c16.1899-3.02,3.95,22.54,7.71,30.95
		c4.4,8.71-13.4,8.53-9.02,0C1199.92,25.92,1197.05,14.32,1200.3,5.05z"/>
	<path opacity="0.29" fill="#4B4B4B" stroke="#4B4B4B" stroke-width="0.4" enable-background="new    " d="M1162.3101,9.26
		c12.0699-1.15,13.33,14.06,17.3999,22.19c4.8301,6.57,6.9,21.28-5.27,19.23c-9.3899-7.39-9.6699-21.18-16.3799-30.71
		C1154.58,15.55,1158.1,10.83,1162.3101,9.26 M1162.38,11.25c-2.38,1.11-6.0601,2.68-3.2,6.59c3.73,9.44,8.13,18.6,12.08,27.95
		c1.75,5.18,11.77,3.94,10.77-1.74c-0.6901-9.17-6.5601-17.01-9.54-25.58C1170.78,14.46,1168.15,8.49,1162.38,11.25z"/>
	<path fill="#6A3017" stroke="#6A3017" stroke-width="0.4" d="M782.9,26.01C814.13,14,847.8,11.04,881,9.92
		c42.31,2.24,85.69,4.92,124.45,23.78c13.14,6.32,25.1299,18.05,26.3799,33.31c-3.4399,14.93-10.36,29.56-21.4999,40.28
		c-7.48,7.89-18.82,8.75-27.56,12.58l-0.79,0.27l-0.71-0.43c-47.11-4.63-81.47-40.78-118.23-66.81c-9.5099-7-24.81-9.57-31.11,3.05
		c-32.51,45.99-19.66,106.77-8.87,158c-14.22,6.09-16.91-8.89-23.42-16.68c-7.43-8.6-18.63-1.24-22.63,6.68
		c-9,17.2-5.49,38.25,3.23,54.88c4.13,6.7,6.19,14.98,4.29,22.75c-10.05,1.5-20.34,1.09-29.4-3.83
		c-9.48-71.78-21.13-146.94-0.2-217.93C761.08,46.32,769.02,32.81,782.9,26.01z"/>
	<path opacity="0.26" fill="#424242" stroke="#424242" stroke-width="0.4" enable-background="new    " d="M1238.47,12.52
		c4.77-9.81,21.54,4.78,11.49,8.33c3.26-5.06-2.23-13.4-8.27-9.16c-6.61,8.54-9.2999,19.41-13.99,29.05
		c-4.5499,6.78,7.3301,15.26,10.4,6.35c4.3101-8.49,7.6801-17.58,11.86-26.24c-0.38,9.42-7.6899,17.4-9.75,26.42
		c-3.1699,9.39-18.45,3.16-14.5-5.56C1230.3,32.11,1233.74,21.97,1238.47,12.52z"/>
	<path opacity="0.64" fill="#A3A3A3" stroke="#A3A3A3" stroke-width="0.4" enable-background="new    " d="M1162.38,11.25
		c5.77-2.76,8.4,3.21,10.11,7.22c2.98,8.57,8.85,16.41,9.54,25.58c1,5.68-9.02,6.92-10.77,1.74c-3.95-9.35-8.35-18.51-12.08-27.95
		C1156.3199,13.93,1160,12.36,1162.38,11.25 M1162.3,13.08c-3.24,4.63,1.0199,11.39,3.76,15.8c3.1299,6.34,4.23,22.74,14.85,16.89
		c-0.0601-9.22-6.8101-16.9-8.9701-25.77C1169.71,16.38,1168.23,10.26,1162.3,13.08z"/>
	<path opacity="0.6" fill="#989897" stroke="#989897" stroke-width="0.4" enable-background="new    " d="M1241.6899,11.69
		c6.04-4.24,11.53,4.1,8.27,9.16c-4.1799,8.66-7.5499,17.75-11.86,26.24c-3.0699,8.91-14.95,0.43-10.4-6.35
		C1232.39,31.1,1235.08,20.23,1241.6899,11.69 M1242.24,13.06c-4.66,6.27-6.61,14.3-9.98,21.21c-3.62,4.11-5.26,15.02,2.4,14.55
		c6.9399-7.71,8.09-18.26,13.14-27.09C1250.41,17.5,1249.37,9.73,1242.24,13.06z"/>
	<path opacity="0.96" fill="#F6F6F6" stroke="#F6F6F6" stroke-width="0.4" enable-background="new    " d="M1162.3,13.08
		c5.9299-2.82,7.4099,3.3,9.6399,6.92c2.16,8.87,8.91,16.55,8.9701,25.77c-10.62,5.85-11.7201-10.55-14.85-16.89
		C1163.3199,24.47,1159.0601,17.71,1162.3,13.08z"/>
	<path opacity="0.96" fill="#F4F4F4" stroke="#F4F4F4" stroke-width="0.4" enable-background="new    " d="M1242.24,13.06
		c7.13-3.33,8.17,4.44,5.5601,8.67c-5.05,8.83-6.2001,19.38-13.14,27.09c-7.66,0.47-6.02-10.44-2.4-14.55
		C1235.63,27.36,1237.58,19.33,1242.24,13.06z"/>
	<path opacity="0.47" fill="#787878" stroke="#787878" stroke-width="0.4" enable-background="new    " d="M1127.35,34.17
		C1138.8,32.46,1144.91,45.89,1153.29,51.7c8.08,3.48,7.4099,16.81-1.9601,16.03c-9.46-5.95-17.5599-14.58-25.38-22.68
		C1120.67,42.08,1123.83,36.66,1127.35,34.17 M1128.34,36.13c-7.2799,7.58,7.66,14.68,11.8301,19.73
		c3.6499,6.07,17.51,16.58,16.63,2.47C1147.61,51,1140.09,37.57,1128.34,36.13z"/>
	<path opacity="0.31" fill="#505050" stroke="#505050" stroke-width="0.4" enable-background="new    " d="M1275.46,34.3
		c10.54-4.99,14.13,10.95,5.88,15.08c-10.25,5.05-14.9099,21.53-28.09,18.44c-5.08-4.03-3.42-11.5,1.97-14.6
		C1261.79,46.73,1268.08,39.91,1275.46,34.3 M1255.74,54.74c-3.66,2.44-6.6799,10.68-0.52,11.76c9.0701,2.3,15.91-13.17,24.49-17.79
		c4.92-2.19,8-11.28,1.3-12.92c-1.28,0.02-2.55,0.13-3.79,0.32C1268.3,39.39,1262.9,48.78,1255.74,54.74z"/>
	<path opacity="0.95" fill="#F2F2F2" stroke="#F2F2F2" stroke-width="0.4" enable-background="new    " d="M1128.34,36.13
		c11.75,1.44,19.27,14.87,28.4601,22.2c0.88,14.11-12.9801,3.6-16.63-2.47C1136,50.81,1121.0601,43.71,1128.34,36.13z"/>
	<path opacity="0.61" fill="#9A9A9A" stroke="#9A9A9A" stroke-width="0.4" enable-background="new    " d="M1255.74,54.74
		c7.16-5.96,12.5601-15.35,21.48-18.63c-8.03,7.65-16.78,14.72-23.58,23.53c-1.85,2.34,0.2999,4.88,1.58,6.86
		C1249.0601,65.42,1252.08,57.18,1255.74,54.74z"/>
	<path opacity="0.96" fill="#F6F6F6" stroke="#F6F6F6" stroke-width="0.4" enable-background="new    " d="M1277.22,36.11
		c1.24-0.19,2.51-0.3,3.79-0.32c5.79,6.76-2.7,12.69-7.63,16.59c-6.2,4.46-9.97,12.95-18.16,14.12c-1.28-1.98-3.4299-4.52-1.58-6.86
		C1260.4399,50.83,1269.1899,43.76,1277.22,36.11z"/>
	<path opacity="0.67" fill="#ABABAB" stroke="#ABABAB" stroke-width="0.4" enable-background="new    " d="M1281.01,35.79
		c6.7,1.64,3.62,10.73-1.3,12.92c-8.58,4.62-15.4199,20.09-24.49,17.79c8.1901-1.17,11.9601-9.66,18.16-14.12
		C1278.3101,48.48,1286.8,42.55,1281.01,35.79z"/>
	<path fill="#B5815D" stroke="#B5815D" stroke-width="0.4" d="M831.93,55.95c6.3-12.62,21.6-10.05,31.11-3.05
		c36.76,26.03,71.12,62.18,118.23,66.81c-0.03,0.82-0.09,2.46-0.13,3.28c-40.91-5.89-73.6-33.09-104.95-58.17
		c-10.3-7.09-20.6-17.21-34.15-15.79c-12.35,8.76-18.3,23.42-22.59,37.37c-10.13,37.79-5.2,77.76,3.95,115.23
		c1.88,5.6,5.14,15.51-4.12,15.09c-13.57,4.03-14.29-12.53-21.98-18.96c-5.93-3.62-14.04-0.61-17.13,5.37
		c-9.75,14.67-7.08,33.9-0.59,49.37c4,8.83,12.32,20.45,5.75,29.82c-9.19,5.89-20.65,0.82-30.23-1.56c0-0.53-0.0099-1.57-0.02-2.09
		l0.05-0.92c9.06,4.92,19.35,5.33,29.4,3.83c1.9-7.77-0.16-16.05-4.29-22.75c-8.72-16.63-12.23-37.68-3.23-54.88
		c4-7.92,15.2-15.28,22.63-6.68c6.51,7.79,9.2,22.77,23.42,16.68C812.27,162.72,799.42,101.94,831.93,55.95z"/>
	<path fill="#FED0A2" stroke="#FED0A2" stroke-width="0.4" d="M842.04,49.03c13.55-1.42,23.85,8.7,34.15,15.79
		c31.35,25.08,64.04,52.28,104.95,58.17c2.14,28.82-8.22,60.95,7.85,87.14c2.69,5.24,4.51,10.92,7.97,15.75
		c6,11.65,11.12,24.93,19.12,35.12c1.52,12.48,9.07,23.91,8.0099,37c0.62,14.52-9.8099,26.05-20.03,35.01
		c-8.41,5.3-19.35,6.79-26.8,13.35c8.7,28.3,22.6,62.74,6.62,91.58c-1.55,1.41-3.17,2.73-4.77,4.07
		c-34.44,25.53-82.22,19.99-118.67,1.61c-40.13-18.78-76.06-46.13-108.47-75.88c-4.3-29.09,0.07-58.17,3.13-86.98
		c9.58,2.38,21.04,7.45,30.23,1.56c6.57-9.37-1.75-20.99-5.75-29.82c-6.49-15.47-9.16-34.7,0.59-49.37
		c3.09-5.98,11.2-8.99,17.13-5.37c7.69,6.43,8.41,22.99,21.98,18.96c9.2599,0.42,6-9.49,4.12-15.09
		c-9.15-37.47-14.08-77.44-3.95-115.23C823.74,72.45,829.69,57.79,842.04,49.03 M887.39,148.37c-18.14,2.89-33.97,19.7-32.29,38.36
		c6.92,4.97,5.53-6.17,9.82-8.79c10.06-15.39,28.57-21.41,46.01-21.1C909.96,146.4,894.88,147.56,887.39,148.37 M884.33,187.16
		c-7.74,6.1-5.89,16.82-4.61,25.15c3.57,6.49,13.91,8.16,17.26,0.68C905.17,204.04,898.55,182.45,884.33,187.16 M846.23,276.11
		c-5.35,16.16-1.53,33.79,0.33,50.32c1.66,19.22,7.8,39.95,23.44,52.55c19.63,17.36,57.37,6.93,62-19.9
		c-5.17-7.1-15.64,1.91-22.9-1.13c-30.91-1.02-48.19-32.91-54.66-59.43C850.08,292.6,856.97,275.3,846.23,276.11z"/>
	<path opacity="0.32" fill="#514522" stroke="#514522" stroke-width="0.4" enable-background="new    " d="M1149.49,92.44
		c11.38-30.27,50.0701-48.11,79.41-32.31c3.98,3.42,3.5699-5.27,7.84-2.97c2.45,3.6,4.66,7.51,5.38,11.87
		c-3.99-3.63-5.92-12.71-11.25-6.08c-13.6899-7.58-31.2-8.87-45.9-3.05c-28.1699,9.32-45.6599,43.05-35.13,71.26
		c1.1801,4.03,4.02,7.55,4.0701,11.89C1143.89,128.31,1143.27,108.78,1149.49,92.44z"/>
	<path opacity="0.65" fill="#A58E53" stroke="#A58E53" stroke-width="0.4" enable-background="new    " d="M1184.97,59.9
		c14.7001-5.82,32.2101-4.53,45.9,3.05c5.33-6.63,7.26,2.45,11.25,6.08c3.22,3.03,6.2,6.31,9.22,9.56l-0.37,0.88l-0.5399,0.74
		c-1.05-1.14-2.0801-2.27-3.15-3.36c-3.86-3.69-7.66-7.48-10.41-12.09c-0.79-2.41-3.14-1.42-4.89-0.83
		C1217.3199,58.79,1200.86,56.77,1184.97,59.9z"/>
	<path fill="#FED565" stroke="#FED565" stroke-width="0.4" d="M1184.97,59.9c15.89-3.13,32.35-1.11,47.01,4.03
		c-2.63,12.42-18.5699,3.99-26.59,10.54c-3.34,2.19-12.59,6.31-9.26,11.48c11.54-5.23,26.3199-4.01,35.04,5.83
		c1.71,3.83,2.47,8.4,6.5199,10.59c6.2301,8.09,1.9901,18.77,1.39,27.92c10.38-4.67,13.42-17.62,13.66-27.97
		c1.5-7.87-9.91-15.68-2.3099-22.11l0.5399-0.74c8.91,18.22,12.15,40.28,3.6901,59.31c-12.78,17.46-27.38,35.04-30.6901,57.14
		c-7.1699,7.68-27.72,0.91-39.5699,2.92c-0.28-1.23-0.84-3.69-1.12-4.92c-1.9-15.65-10.15-30.01-20.3201-41.85
		c-22.59-26-17.51-72.27,15.28-87.7C1180.91,63.59,1183.52,62.44,1184.97,59.9z"/>
	<path opacity="0.67" fill="#A98E42" stroke="#A98E42" stroke-width="0.4" enable-background="new    " d="M1149.84,131.16
		c-10.5299-28.21,6.9601-61.94,35.13-71.26c-1.45,2.54-4.0599,3.69-6.73,4.47c-32.79,15.43-37.87,61.7-15.28,87.7
		c-2.9199-3.12-5.6699-6.39-9.0499-9.02C1153.86,138.71,1151.02,135.19,1149.84,131.16z"/>
	<path fill="#FEDE8C" stroke="#FEDE8C" stroke-width="0.4" d="M1231.98,63.93c1.75-0.59,4.1-1.58,4.89,0.83
		c-4.98,3.73-9.29,9.66-13.92,14.23c4.9301,4.85,12.53,22.2,18.16,10.06c1.78-4.11,7.16-7.24,6.17-12.2
		c1.0699,1.09,2.1,2.22,3.15,3.36c-7.6001,6.43,3.8099,14.24,2.3099,22.11c-0.24,10.35-3.28,23.3-13.66,27.97
		c0.6001-9.15,4.8401-19.83-1.39-27.92c-4.0499-2.19-4.8099-6.76-6.5199-10.59c-8.7201-9.84-23.5-11.06-35.04-5.83
		c-3.33-5.17,5.92-9.29,9.26-11.48C1213.41,67.92,1229.35,76.35,1231.98,63.93z"/>
	<path fill="#FEF0D1" stroke="#FEF0D1" stroke-width="0.4" d="M1222.95,78.99c4.63-4.57,8.9401-10.5,13.92-14.23
		c2.75,4.61,6.55,8.4,10.41,12.09c0.99,4.96-4.39,8.09-6.17,12.2C1235.48,101.19,1227.88,83.84,1222.95,78.99z"/>
	<path opacity="0.3" fill="#4C4C4C" stroke="#4C4C4C" stroke-width="0.4" enable-background="new    " d="M1106.02,69.18
		c11.49-0.41,21.77,5.93,32.33,9.48c8.2101,2.8,7.1801,13.64-1.4399,15.29c-11.42-3.55-22.89-6.94-33.55-12.3
		c-2.53-3.53-2.79-11.27,2.78-11.8c-3.66,2.99-4.92,9.69,0.2999,11.66c10.13,3.46,20.0901,7.84,30.4901,10.36
		c9.11-1.76,4.7899-13.95-3.88-12.99C1124.1899,75.27,1115.46,71.06,1106.02,69.18z"/>
	<path opacity="0.25" fill="#414141" stroke="#414141" stroke-width="0.4" enable-background="new    " d="M1292.59,71.56
		c5.16-4,14.65-3.86,16.4,3.55c-0.14,10.02-12.75,11.55-20.11,12.71c6.47-3.56,23.92-4.9,16.4-16.16
		c-13.02-1.21-27.05,5.73-38.13,12.61c-0.92,13.02,15.37,7.35,21.73,3.55c-5.8,7.94-25.6801,10.5-22.77-4.61
		C1273.73,76.81,1283.52,74.76,1292.59,71.56z"/>
	<path opacity="0.65" fill="#A6A6A6" stroke="#A6A6A6" stroke-width="0.4" enable-background="new    " d="M1106.02,69.18
		c9.4399,1.88,18.1699,6.09,27.03,9.7c-9.74,0.88-18.7101-9.44-27.91-5.72c-4.21,7.8,7.86,8.22,12.7999,10.71
		c7.3301,1.48,15.7301,9.21,23.01,3.89c1.37-5.15-5.6-5.4-7.8999-8.88c8.6699-0.96,12.99,11.23,3.88,12.99
		c-10.4-2.52-20.3601-6.9-30.4901-10.36c-5.22-1.97-3.96-8.67-0.2999-11.66L1106.02,69.18z"/>
	<path opacity="0.61" fill="#9B9B9B" stroke="#9B9B9B" stroke-width="0.4" enable-background="new    " d="M1267.15,84.27
		c11.08-6.88,25.11-13.82,38.13-12.61c7.52,11.26-9.9301,12.6-16.4,16.16C1282.52,91.62,1266.23,97.29,1267.15,84.27 M1298.41,72.32
		c-9.61,5.1-19.9301,6.71-29.41,11.88c-2.5601,9.4,9,5.09,13.61,4.41c6.37-3.47,13.62-4.88,20.1901-7.82
		C1307.36,78.19,1304.71,68.16,1298.41,72.32z"/>
	<path opacity="0.97" fill="#F8F8F8" stroke="#F8F8F8" stroke-width="0.4" enable-background="new    " d="M1105.14,73.16
		c9.2-3.72,18.17,6.6,27.91,5.72c2.2999,3.48,9.2699,3.73,7.8999,8.88c-7.2799,5.32-15.6799-2.41-23.01-3.89
		C1113,81.38,1100.9301,80.96,1105.14,73.16z"/>
	<path opacity="0.96" fill="#F6F6F6" stroke="#F6F6F6" stroke-width="0.4" enable-background="new    " d="M1298.41,72.32
		c6.2999-4.16,8.95,5.87,4.39,8.47c-6.5701,2.94-13.8201,4.35-20.1901,7.82c-4.61,0.68-16.17,4.99-13.61-4.41
		C1278.48,79.03,1288.8,77.42,1298.41,72.32z"/>
	<path opacity="0.32" fill="#51431F" stroke="#51431F" stroke-width="0.4" enable-background="new    " d="M1251.34,78.59
		c13.99,15.99,15.87,42.15,5.74,60.47c5.6901-19.64,7.1001-42.48-6.11-59.59L1251.34,78.59z"/>
	<path opacity="0.68" fill="#AE8F4D" stroke="#AE8F4D" stroke-width="0.4" enable-background="new    " d="M1250.97,79.47
		c13.2101,17.11,11.8,39.95,6.11,59.59c-13.3999,16.63-28.1499,33.61-30.9099,55.7c4.83,3.68,11.0399-6.19,16.5399-1.53
		c1.03,6.44,5.5801,7.17,11.4301,7.26l-0.9501,0.23c-3.4299,0.01-13.8899,6.67-11.22-0.61c4.49-10.98-9.6599-4.4-14.0399-1.7
		c-1.3501-0.81-2.67-1.63-3.9601-2.49c3.3101-22.1,17.91-39.68,30.6901-57.14C1263.12,119.75,1259.88,97.69,1250.97,79.47z"/>
	<path opacity="0.33" fill="#544430" stroke="#544430" stroke-width="0.4" enable-background="new    " d="M1226.17,194.76
		c2.76-22.09,17.51-39.07,30.9099-55.7c-7.46,16.17-23.5,27.57-27.12,45.94c-6.1499,15.29,12.4501-0.53,15.39,9.51
		c-0.8199,8.73,11.59,0.71,12.34,7.91c3.6101,5.67-14.6399,18.69-3.62,13.7c4.63-3.97,17.9-0.45,13.87,6.79
		c-12.5,11.63-27.22,20.66-39.6899,32.35c-15.45,12.05-19.55,32.53-24.01,50.46c-0.48,0.35-1.4399,1.04-1.92,1.39l-0.2799-0.85
		c3.5-25.51,16.5-47.73,36.98-63.26c9.51-7.19,21.35-13.1,28.1-23.04c-3.6-5.84-11.97-4.41-16.3199-0.05
		c-11.3301-1.28,13.36-13.39,3.34-19.42c-5.85-0.09-10.4-0.82-11.4301-7.26C1237.21,188.57,1231,198.44,1226.17,194.76z"/>
	<path opacity="0.39" fill="#5A4C35" stroke="#5A4C35" stroke-width="0.4" enable-background="new    " d="M1153.91,143.05
		c3.38,2.63,6.13,5.9,9.0499,9.02c10.17,11.84,18.42,26.2,20.3201,41.85c-1.3301,3.06-3.55,5.77-4.27,9.05
		c-0.17,1.95-0.13,3.91-0.09,5.87c0.01,0.79,0.0199,2.37,0.0299,3.16c-0.0399,1.62-0.0599,3.25-0.0499,4.88
		c0,0.55,0.01,1.65,0.01,2.2c-0.11,2.95,0.12,5.94,0,8.9c-0.2101,0.33-0.64,1-0.85,1.33c-0.77-0.04-2.3101-0.11-3.0701-0.14
		c-0.48-0.05-1.4299-0.15-1.91-0.2c-0.2899-0.22-0.88-0.64-1.1699-0.86c-9.78-10.12,4.5499-26.57-3.75-37.31
		c-0.3201-0.29-0.9401-0.86-1.26-1.15c-8.89-2.93-8.7101,8.14-10.49,13.72c-2.25,15.21-9.86,31.11-2.39,45.94
		c-8.6801-9.52-3.89-23.51-1.38-34.51c2.86-8.77,0.9299-24.94,12.36-27.86c17.5,4.51-5.4399,35.25,10.92,40.11
		c4.33-8.32-3.2301-23.71,4.76-32.41C1180.03,174.48,1165.1899,158.6,1153.91,143.05z"/>
	<path fill="#BC8863" stroke="#BC8863" stroke-width="0.4" d="M887.39,148.37c7.49-0.81,22.57-1.97,23.54,8.47
		c-17.44-0.31-35.95,5.71-46.01,21.1c-4.29,2.62-2.9,13.76-9.82,8.79C853.42,168.07,869.25,151.26,887.39,148.37 M889.4,150.38
		c-12.86,1.08-24.57,9.69-29.54,21.57c-0.34,3.89-6.68,10.33-1.92,13.16c8.41-15.91,24.09-28.6,42.62-29.62
		C909.06,151.3,892.93,147.3,889.4,150.38z"/>
	<path fill="#72391F" stroke="#72391F" stroke-width="0.4" d="M889.4,150.38c3.53-3.08,19.66,0.92,11.16,5.11
		c-18.53,1.02-34.21,13.71-42.62,29.62c-4.76-2.83,1.58-9.27,1.92-13.16C864.83,160.07,876.54,151.46,889.4,150.38z"/>
	<path fill="#B98561" stroke="#B98561" stroke-width="0.4" d="M884.33,187.16c14.22-4.71,20.84,16.88,12.65,25.83
		c-3.35,7.48-13.69,5.81-17.26-0.68C878.44,203.98,876.59,193.26,884.33,187.16 M885.08,188.99c-8.8,7.57-7.38,30.85,7.63,26.9
		C900.44,208.21,899.82,185.34,885.08,188.99z"/>
	<path fill="#6D331A" stroke="#6D331A" stroke-width="0.4" d="M885.08,188.99c14.74-3.65,15.36,19.22,7.63,26.9
		C877.7,219.84,876.28,196.56,885.08,188.99z"/>
	<path opacity="0.68" fill="#AC8C6D" stroke="#AC8C6D" stroke-width="0.4" enable-background="new    " d="M1156.41,203.37
		c1.7799-5.58,1.6-16.65,10.49-13.72c-9.99,0.37-6.86,12.43-10.22,18.89c-2.39,13.67-5.8401,26.8-1.79,40.19l-0.87,0.58
		C1146.55,234.48,1154.16,218.58,1156.41,203.37z"/>
	<path fill="#FCCDA0" stroke="#FCCDA0" stroke-width="0.4" d="M1156.6801,208.54c3.36-6.46,0.23-18.52,10.22-18.89
		c0.3199,0.29,0.9399,0.86,1.26,1.15c0.7799,10.1,2.1799,20.88-1.86,30.49c-1.63,3.63,3.6499,4.84,5.61,6.82
		c0.2899,0.22,0.88,0.64,1.1699,0.86c11.2301,15.53,34.79,3.1,50.91,7.05c9.39,2.5,3.5601-8.09,6.28-12.74
		c1.79-3.06-2.65-3.87-4.47-5.28c6.74-2.94,3.21-13.75,2.13-19.59c4.38-2.7,18.5299-9.28,14.0399,1.7
		c-2.6699,7.28,7.79,0.62,11.22,0.61c7.4601,8.9-13.5,14.69-7.99,23.01c5.02-1.44,17.2201-10.77,18.8-1.85
		c-6.95,8.06-18.1,12.53-24.98,21.12c-13.9301,9.53-27.7001,21.76-31.34,38.95c-2.77,7.6-4.63,15.53-8.05,22.89
		c-12.22-1.79-23.6801-8.47-35.92-10.71c-0.46-3.66-0.85-7.31-0.75-10.99c3.86-4.92,2.98-13.6,0.39-19.3
		c-2.97-4.97-4.48-10.79-8.46-15.11C1150.84,235.34,1154.29,222.21,1156.6801,208.54z"/>
	<path opacity="0.67" fill="#AA8B6C" stroke="#AA8B6C" stroke-width="0.4" enable-background="new    " d="M1168.16,190.8
		c8.2999,10.74-6.03,27.19,3.75,37.31c-1.9601-1.98-7.24-3.19-5.61-6.82C1170.34,211.68,1168.9399,200.9,1168.16,190.8z"/>
	<path fill="#B3A69C" stroke="#B3A69C" stroke-width="0.4" d="M1183.28,193.92c0.28,1.23,0.84,3.69,1.12,4.92
		c11.85-2.01,32.4,4.76,39.5699-2.92c1.29,0.86,2.61,1.68,3.9601,2.49c1.08,5.84,4.61,16.65-2.13,19.59
		c1.8199,1.41,6.26,2.22,4.47,5.28c-2.72,4.65,3.11,15.24-6.28,12.74c-16.12-3.95-39.6799,8.48-50.91-7.05
		c0.4801,0.05,1.4301,0.15,1.91,0.2c0.41,1.42,2.59,1.7,3.0701,0.14c0.21-0.33,0.6399-1,0.85-1.33
		c13.5699-7.83,33.8099,0.13,49.63-3.47c0.62-1.29,0.51-2.77,0.02-4.08c-16.4701-1.92-33.38,1.48-49.65-1.35
		c0-0.55-0.01-1.65-0.01-2.2c15.91-2.09,32.01-0.12,48-0.99c1.91,0.21,2.72-2.07,1.59-3.42c-16.48-1.13-33.04-0.18-49.54-0.47
		c-0.01-0.79-0.0199-2.37-0.0299-3.16c15.86-2.04,31.9199,0,47.84-1.03c1.78-0.72,1.28-2.97,0.8-4.38
		c-16.16-1.04-32.38-0.14-48.55-0.46C1179.73,199.69,1181.95,196.98,1183.28,193.92 M1180.23,230.13c-2.04,1.01-1.66,4.86,0.84,4.82
		c15.64,0.14,31.29,0.09,46.9501-0.01c0.12-1.78,0.34-5.08-2.38-4.46C1210.47,229,1195.36,232.48,1180.23,230.13z"/>
	<path opacity="0.7" fill="#B38F71" stroke="#B38F71" stroke-width="0.4" enable-background="new    " d="M1253.1899,200.72
		l0.9501-0.23c10.02,6.03-14.67,18.14-3.34,19.42c4.35-4.36,12.72-5.79,16.3199,0.05c-6.75,9.94-18.59,15.85-28.1,23.04
		c6.88-8.59,18.03-13.06,24.98-21.12c-1.58-8.92-13.78,0.41-18.8,1.85C1239.6899,215.41,1260.65,209.62,1253.1899,200.72z"/>
	<path fill="#6B6563" stroke="#6B6563" stroke-width="0.4" d="M1179.01,202.97c16.17,0.32,32.39-0.58,48.55,0.46
		c0.48,1.41,0.98,3.66-0.8,4.38c-15.92,1.03-31.98-1.01-47.84,1.03C1178.88,206.88,1178.84,204.92,1179.01,202.97z"/>
	<path fill="#6E6863" stroke="#6E6863" stroke-width="0.4" d="M1178.95,212c16.5,0.29,33.0601-0.66,49.54,0.47
		c1.13,1.35,0.3201,3.63-1.59,3.42c-15.99,0.87-32.09-1.1-48,0.99C1178.89,215.25,1178.91,213.62,1178.95,212z"/>
	<path fill="#6E6863" stroke="#6E6863" stroke-width="0.4" d="M1178.91,219.08c16.27,2.83,33.1799-0.57,49.65,1.35
		c0.49,1.31,0.6,2.79-0.02,4.08c-15.8201,3.6-36.0601-4.36-49.63,3.47C1179.03,225.02,1178.8,222.03,1178.91,219.08z"/>
	<path opacity="0.64" fill="#937C66" stroke="#937C66" stroke-width="0.4" enable-background="new    " d="M1174.99,229.17
		c0.76,0.03,2.3,0.1,3.0701,0.14C1177.58,230.87,1175.4,230.59,1174.99,229.17z"/>
	<path fill="#8B7E72" stroke="#8B7E72" stroke-width="0.4" d="M1180.23,230.13c15.13,2.35,30.24-1.13,45.41,0.35
		c2.72-0.62,2.5,2.68,2.38,4.46c-15.66,0.1-31.3101,0.15-46.9501,0.01C1178.5699,234.99,1178.1899,231.14,1180.23,230.13z"/>
	<path opacity="0.82" fill="#AE8E6F" stroke="#AE8E6F" stroke-width="0.4" enable-background="new    " d="M1207.6801,281.95
		c3.6399-17.19,17.4099-29.42,31.34-38.95c-20.48,15.53-33.48,37.75-36.98,63.26c-13.29-0.37-26.37-6.5-38.3301-12.13
		c12.24,2.24,23.7001,8.92,35.92,10.71C1203.05,297.48,1204.91,289.55,1207.6801,281.95z"/>
	<path opacity="0.37" fill="#5E4C3C" stroke="#5E4C3C" stroke-width="0.4" enable-background="new    " d="M1154.02,249.31
		l0.87-0.58c0.9299,3.15,2.4399,6.11,3.01,9.36C1155.9,255.52,1153.77,252.77,1154.02,249.31z"/>
	<path opacity="0.67" fill="#AA8A6B" stroke="#AA8A6B" stroke-width="0.4" enable-background="new    " d="M1154.89,248.73
		c3.98,4.32,5.49,10.14,8.46,15.11c-1.9-1.85-3.75-3.74-5.45-5.75C1157.33,254.84,1155.8199,251.88,1154.89,248.73z"/>
	<path opacity="0.33" fill="#534435" stroke="#534435" stroke-width="0.4" enable-background="new    " d="M1157.9,258.09
		c1.7,2.01,3.5499,3.9,5.45,5.75c-0.25,6.42-0.34,12.86-0.39,19.3c-0.6799,3.01-1.26,6.05-2.14,9.02L1160,292.03
		c0.0699-0.49,0.21-1.46,0.28-1.95C1161.24,279.28,1164.12,267.64,1157.9,258.09z"/>
	<path opacity="0.67" fill="#AA8A6C" stroke="#AA8A6C" stroke-width="0.4" enable-background="new    " d="M1163.35,263.84
		c2.59,5.7,3.47,14.38-0.39,19.3C1163.01,276.7,1163.1,270.26,1163.35,263.84z"/>
	<path fill="#FFE2C6" stroke="#FFE2C6" stroke-width="0.4" d="M846.23,276.11c10.74-0.81,3.85,16.49,8.21,22.41
		c6.47,26.52,23.75,58.41,54.66,59.43c7.26,3.04,17.73-5.97,22.9,1.13c-4.63,26.83-42.37,37.26-62,19.9
		c-15.64-12.6-21.78-33.33-23.44-52.55C844.7,309.9,840.88,292.27,846.23,276.11 M848.21,288.09c-3.05,26.21-0.19,55.27,12.89,78.83
		c13.21,24.28,54.06,24.91,66.53-0.26c2.68-2.65,3.95-10.71-1.99-8.06c-15.37,6.03-32.04-0.54-44.84-9.42
		c-15.73-13.48-24.19-33.44-28.84-53.13C851.77,294.17,852.05,287.35,848.21,288.09z"/>
	<path opacity="0.71" fill="#967F64" stroke="#967F64" stroke-width="0.4" enable-background="new    " d="M1160.8199,292.16
		c0.88-2.97,1.4601-6.01,2.14-9.02c-0.1,3.68,0.29,7.33,0.75,10.99C1162.71,293.5,1161.75,292.83,1160.8199,292.16z"/>
	<path fill="#FFFCF9" stroke="#FFFCF9" stroke-width="0.4" d="M848.21,288.09c3.84-0.74,3.56,6.08,3.75,7.96
		c4.65,19.69,13.11,39.65,28.84,53.13c12.8,8.88,29.47,15.45,44.84,9.42c5.94-2.65,4.67,5.41,1.99,8.06
		c-12.47,25.17-53.32,24.54-66.53,0.26C848.02,343.36,845.16,314.3,848.21,288.09z"/>
	<path opacity="0.51" fill="#211A17" stroke="#211A17" stroke-width="0.4" enable-background="new    " d="M1140.72,321.79
		c7.53-9.87,8.8201-24.98,19.5601-31.71c-0.0701,0.49-0.2101,1.46-0.28,1.95c-11.91,14.29-17.23,33.56-27.84,49.14
		c-15.5,27.37-33.04,53.57-53.4301,77.57c-21.91,27.17-55.98,51.12-92.6,40.15c-7.15-1.53-10.88-6.59-9.17-13.81
		c0.23-0.31,0.68-0.94,0.91-1.26c0.49,0.04,1.47,0.13,1.97,0.17c-5.44,10.59,7.7599,13.74,15.55,14.64
		c25.69,4.05,49.99-9.04,68.0499-26.15C1095.2,400.23,1119.16,361.34,1140.72,321.79z"/>
	<path fill="#41352F" stroke="#41352F" stroke-width="0.4" d="M1160,292.03l0.8199,0.13c0.9301,0.67,1.89,1.34,2.89,1.97
		c11.9601,5.63,25.04,11.76,38.3301,12.13l0.2799,0.85c-0.5299,14.68-10.6899,27.89-15.46,41.72
		c-21.73,45.46-47.37,89.45-80.33,127.74c-32.24,38.31-73.42,70.65-121.94,85.03c-2.33,40.2401,4.25,80.83,3.24,120.85l0.06,0.8
		l0.05,0.81c-46.69,17.84-91.61,40.17-135.02,64.83c-6.43,5.94,4.78,6.05,8.84,8.25c15.89,5.1,30.82,12.68,45.45,20.59
		c15.82,8.68,32.03,22.63,27.49,42.94c-6.34,42.5-29.62,80.06-51.73,116.19c0.53,1.15,1.23,2.23,1.94,3.31
		c-6.42-7.35-16.97-5.68-25.7599-7.16c-7.29,6-4.66,15.68-1.2,23.18c-11.54-11.65,0.71-25.25,5.51-36.66
		c12.22-34.32,28.48-67.55,35.52-103.41c-3.39-8.8-14.31-7.92-21.66-11.36c-33.95-4.78-68.4-9.21-102.66-7.87l-0.71,0.11
		c-1.53-0.38-3.05-0.79-4.57-1.16c-41.27-6.89-70.03-43.2401-82.18-81.13c-1.52-2.55-3.47-8.91-7.13-6.77
		c-10.49,38.68-20.02,78.45-27.92,118.01l-0.22,0.85c-12.88-5.3-27.58-2.08-41.16-4.09c-3.88-149.25,52.92-291.9901,125.5-419.88
		c41.87,28.63,80.08,66.36,128.17,85.34c3.25,0.39,5.92,2.23,7.55,4.95c-4.92-0.27-16.59-10.7-15.48-2.6
		c18.92,28.31,35.53,58.34,55.5,85.88c8.97,10.64,12.99,27.29,24.83,34.6c3.3-11.62,7.3199-25.55,10.23-38.38
		c9.27-26.72,15.83-55.8,23.01-83.63c-0.98-8.78-6.7,2.15-9.22,4.87c-4.2,3.65-7.93-1.62-10.87-4.16
		c-7.71-8.34-14.04-17.82-21.36-26.45c-3.13-1.46-5.22,2.03-7.27,3.77c-1.16-5.05-8.62-1.12-10.53-6.07
		c22.8,2.51,47.72-1.54,66.13-15.87c-1.71,7.22,2.02,12.28,9.17,13.81c36.62,10.97,70.6899-12.98,92.6-40.15
		c20.39-24,37.9301-50.2,53.4301-77.57C1142.77,325.59,1148.09,306.32,1160,292.03z"/>
	<path opacity="0.51" fill="#211B17" stroke="#211B17" stroke-width="0.4" enable-background="new    " d="M1204.24,305.72
		c0.71,2.01,2.15,4.21,0.78,6.28c-28.53,69.53-65.87,137-120.14,189.82c-27.11,27.74-60.5699,50.28-98.2,60.92
		c-2.88,37.8,5.46,75.91,3.08,114.05c-0.48,1.41-1.45,4.25-1.93,5.66c1.01-40.02-5.57-80.61-3.24-120.85
		c48.52-14.38,89.7-46.72,121.94-85.03c32.96-38.29,58.6-82.28,80.33-127.74c4.77-13.83,14.9301-27.04,15.46-41.72
		C1202.8,306.76,1203.76,306.07,1204.24,305.72z"/>
	<path fill="#9A7E64" stroke="#9A7E64" stroke-width="0.4" d="M751.97,367.74c32.41,29.75,68.34,57.1,108.47,75.88
		c36.45,18.38,84.23,23.92,118.67-1.61c-0.31,0.46-0.93,1.36-1.24,1.81c-0.23,0.32-0.68,0.95-0.91,1.26
		c-18.41,14.33-43.33,18.38-66.13,15.87c-40.1-4.36-75.36-26.67-107.91-49.03c-17.75-13.39-35.85-26.63-51.82-42.03l0.2401-0.7
		C751.5,368.82,751.81,368.1,751.97,367.74z"/>
	<path fill="#342B25" stroke="#342B25" stroke-width="0.4" d="M751.1,369.89c15.97,15.4,34.07,28.64,51.82,42.03
		c32.55,22.36,67.81,44.67,107.91,49.03c1.91,4.95,9.37,1.02,10.53,6.07c-7.52,7.64-15.01,15.33-22.77,22.73
		c-6.32,9.41-18.13,10.34-26.6,3.37c-1.63-2.72-4.3-4.56-7.55-4.95c-48.09-18.98-86.3-56.71-128.17-85.34
		C741.21,391.91,743.17,379.32,751.1,369.89z"/>
	<path fill="#FEFEFE" stroke="#969696" d="M1812.92,378.07c35.6899-0.2,71.38,0,107.08-0.07v18.34
		c-8.7,7.32-6.5601,21.61-11.97,31.48c-6.54,17.76-10.1801,37.05-17.75,54.13c-6.8201-9.82-13.66-19.7-21.4601-28.75
		c-3-3.36-6.6599,1.89-9.5199,3.03c-15.2001,11.58-32.0701,21.1-46.3301,33.78c-10.63,4.57-19.95,12.82-28.97,20
		c-27.0699,17.39-54.4301,35.51-78.8199,56.2c-22.16,56.59-46.65,112.88-68.13,169.83c-8.7001,17.48-15.24,35.9901-22.8501,53.97
		c-2.2,8.62-8.7699,16.05-9.0699,25.06c-3.87,6.01-7.1801,12.93-8.08,19.98c-9.02,15.9-13.9601,34.27-22.02,50.89
		c-3.4601,11.97-11.02,22.83-12.99,35.07c-16.8201,33.14-27.55,70.4-44.54,103.48c-64.8-3.84-129.59-12.49-194.49-17.34
		c-5.2,0.68-6.6801-3.84-4.23-7.42c8.7999-14.3,17.01-28.96,25.46-43.44c4.74-4.52,12.1901-0.45,17.97-1.42
		c39.54,1.66,79.7001,8.36,118.62,9.98c11.8201-24.2599,22.2001-50.22,31.15-75.91c8.97-12.99,11.6-29.62,19.14-43.61
		c0.92-5.37,5.42-9.73,4.76-15.38c9.64-15.74,13.8099-34.88,22.5699-51.42c2.3401-12.2401,11.7001-22.02,12.5-34.6
		c16.4701-33.12,28.12-69.36,43.4-103.44c7.74-20.51,18.23-40.41,23.54-61.56c10.86-16.01,13.73-36.56,23.9-53.14
		c20.4399-16.01,43.39-29.08,63.2799-45.69c14.01-7.94,27.65-17.75,40.1101-28.08c3.95-2.55,7.6599-5.49,11.62-8.06
		c18.35-10.04,34.4099-23.83,52.11-34.96c4.39-2.02,2.7799-9.38-1.77-10.14c-2.6901-6.16-7.33-11.32-12.08-15.99
		C1814.29,381.29,1813.52,379.71,1812.92,378.07z"/>
	<path opacity="0.41" fill="#63513F" stroke="#63513F" stroke-width="0.4" enable-background="new    " d="M983.88,437.94
		c2.58-2.19,4.3-5.14,6.14-7.93c-0.12,6.27-6.03,10.18-10.18,13.98c-0.5-0.04-1.48-0.13-1.97-0.17c0.31-0.45,0.93-1.35,1.24-1.81
		C980.71,440.67,982.33,439.35,983.88,437.94z"/>
	<path fill="#0695A5" stroke="#0695A5" stroke-width="0.4" d="M921.36,467.02c2.05-1.74,4.14-5.23,7.27-3.77
		c7.32,8.63,13.65,18.11,21.36,26.45c-6.51,10.96-23.54,21.73-16.47,36.49c3,10.7,5.08,21.63,7.74,32.43
		c1.14,4.67,0.49,11.61,5.81,14c-2.91,12.83-6.93,26.76-10.23,38.38c-11.84-7.31-15.86-23.96-24.83-34.6
		c6-14.35,5.17-34.6,8.38-51.17c6.15-15.91-14.93-23.36-21.8-35.48C906.35,482.35,913.84,474.66,921.36,467.02z"/>
	<path fill="#92AFB1" stroke="#92AFB1" stroke-width="0.4" d="M960.86,493.86c2.52-2.72,8.24-13.65,9.22-4.87
		c-7.18,27.83-13.74,56.91-23.01,83.63c-5.32-2.39-4.67-9.33-5.81-14c-2.66-10.8-4.74-21.73-7.74-32.43
		c-7.07-14.76,9.96-25.53,16.47-36.49C952.93,492.24,956.66,497.51,960.86,493.86 M967.3,488.23c-4.22,7.06-12.21,13.33-18.25,4.74
		c-5.65,8.92-19.06,20.35-13.58,33.78c6.2,12.22,3.2401,29.8,11.51,40.19c7.67-22.9,13.06-48.71,20.24-72.77
		C968.17,492.54,970.92,487.13,967.3,488.23z"/>
	<path fill="#93ADAF" stroke="#93ADAF" stroke-width="0.4" d="M856.51,490.52c-1.11-8.1,10.56,2.33,15.48,2.6
		c8.47,6.97,20.28,6.04,26.6-3.37c6.87,12.12,27.95,19.57,21.8,35.48c-3.21,16.57-2.38,36.82-8.38,51.17
		C892.04,548.86,875.43,518.83,856.51,490.52 M859.93,491.02c14,24.24,29.99,48.17,45.05,72.09c2.13,2.97,3.24,8.41,7.86,7.95
		c1.6299-18.5,6.03-37.04,6.58-55.42c-7.06-7.82-14.56-17.31-22.12-23.42C888.52,508.8,871.75,493.92,859.93,491.02z"/>
	<path fill="#F7FAFA" stroke="#F7FAFA" stroke-width="0.4" d="M967.3,488.23c3.62-1.1,0.87,4.31-0.08,5.94
		c-7.18,24.06-12.5699,49.87-20.24,72.77c-8.27-10.39-5.31-27.97-11.51-40.19c-5.48-13.43,7.9301-24.86,13.58-33.78
		C955.09,501.56,963.08,495.29,967.3,488.23z"/>
	<path fill="#FAFBFB" stroke="#FAFBFB" stroke-width="0.4" d="M859.93,491.02c11.82,2.9,28.59,17.78,37.37,1.2
		c7.56,6.11,15.06,15.6,22.12,23.42c-0.55,18.38-4.95,36.92-6.58,55.42c-4.6201,0.46-5.73-4.98-7.86-7.95
		C889.92,539.19,873.93,515.26,859.93,491.02z"/>
	<path fill="#FD5A2F" stroke="#FD5A2F" stroke-width="0.4" d="M1490.77,587.85c2.54-0.74,6.84-4.81,8.29-0.95
		c-26.89,33.58-59.7301,61.71-89.65,92.5099c-6.4701,7.82-24.9701,14.95-17.7101,26.82c12.4501,28.62,9.9701,60.57,8.3201,90.97
		c-22.5701-26.43-42.9301-54.75-64.61-81.95c10.2899-14.05,27.98-22.15,40.4099-34.55c-0.23-7.78-10.4199-10.75-13.49-17.41
		C1404.21,636.73,1446.78,610.86,1490.77,587.85z"/>
	<path fill="#F3EDEB" stroke="#F3EDEB" stroke-width="0.4" d="M988.15,686.05c81.25-31.45,166.22-54.46,253.96-55.09
		c-1.23,2.04-5.91,5.94,2.63,2.69c9.4301,0.85,21.77-3.25,28.01,5.61c18.59,25.15,39.75,49.06,57.21,74.67
		c-35.2999,30.55-74.6,58.11-111.23,87.79c-1.7999,2.1-4.53,0.86-6.77,0.41C1183.92,768.8,1140.67,748.41,1097,749.91
		c-49.77,0.4301-98.83,29.27-122.93,73.11c-27.01,45.7-24.91,104.1,2.88,148.87c1.17,4.58,7.24,8,6.46,12.51
		c-104.34,80.72-208.8199,161.87-313.06,242.95c-3.97,5.36-9.21,7.51-13.68,0.91c-35.74-44.39-69.34-90.63-105.72-134.41
		c-5.24-6.03-10.07-12.39-14.92-18.72c-1.6-7.87-11.52-11.97-11.91-19.9c48.78-76.72,111.98-143.47,181.26-202
		c23.17-19.26,48.21-37.1,71.86-55.15c36.13,2.69,72.9,2.48,108.23,11.41c18.02,2.21,7.08,22.37,4.39,33.47
		c-12.5,32.25-22.7,65.78-38.57,96.48c-2.22,18.64,16.05,31,28.73,41.53c11.54,6.69,25.27,14.6201,38.9,9.01
		c8.12-7.44,2.79-18.96-2.87-26.02c-7.54-11.47-22.06-18.39-29.89-27.75c21.6801-36.25,44.36-73.55,51.23-115.86
		c2.48-11.88-2.69-24.23-11.63-32.0699c-21.08-17.26-46.7-27.36-72.08-36.33C895.77,725.49,942.15,705.22,988.15,686.05z"/>
	<path fill="#EADED9" stroke="#EADED9" stroke-width="0.4" d="M1242.11,630.96c8.86,1.34,17.75,2.48,26.78,2.1
		c45.4299,53.33,85.63,111.08,129.23,165.94c-5.8099,51.11-26.33,99.06-49.5699,144.71c-8.1001,9.07,7.09,11.59,13.6599,11.16
		c-5.7799,0.97-13.23-3.1-17.97,1.42c-8.45,14.48-16.66,29.14-25.46,43.44c-2.4501,3.58-0.97,8.1,4.23,7.42
		c-4.47-0.32-11.03-1.55-13.24,3.7c-17.51,28.6-39.14,54.5601-57.6801,82.26c-29.84,33.6801-59.26,68.01-91.09,99.96
		c-23.5601,20.9801-47.37,42.04-71.14,62.88c-2.7,2.24-5.4299,4.41-8.12,6.65c-12.64,8.48-24.36,18.41-36.65,27.4401
		c-68.7,49.45-143.42,91.1-223.04,120.0499c-6.73,1.67-12.88,5.54-19.86,6.0701c-11.18-15.8-23.11-31.0601-35.32-46.0701
		c-25.82-31.6-49.35-65.13-75.84-96.12c-10.05-16.27-23.5601-29.98-34.36-45.71c4.47,6.6,9.71,4.45,13.68-0.91
		c104.2401-81.08,208.72-162.23,313.06-242.95c0.78-4.51-5.29-7.9301-6.46-12.51c0.61,0.23,1.83,0.7,2.44,0.94
		c4.19,6.9,8.03,14.41,14.68,19.33c2.75,3.09,5.52,6.27,8.83,8.82c31.39,31.84,79.8099,43.23,123.16,36.14
		c44.86-7.8099,84.6599-38.83,104.5699-79.64c23.29-48.1,18.4399-110.05-16.67-151.24c-0.64-1.4-1.27-2.78-2-4.11
		c2.24,0.45,4.9701,1.69,6.77-0.41c36.63-29.68,75.9301-57.24,111.23-87.79c-17.46-25.61-38.62-49.52-57.21-74.67
		c-6.24-8.86-18.58-4.76-28.01-5.61C1236.2,636.9,1240.88,633,1242.11,630.96z"/>
	<path fill="#FE986E" stroke="#FE986E" stroke-width="0.4" d="M1268.89,633.06c0.74-0.01,2.21-0.02,2.95-0.03
		c32.64,5.98,66.64,13.8799,92.24,36.92c2.7001,2.71,9.9301,7.26,6.55,11.69c-12,10.16-24.48,19.82-37.4401,28.72
		c-0.7999,1.99,1.28,3.38,2.2201,4.89c21.6799,27.2,42.0399,55.52,64.61,81.95c0.02,0.51,0.08,1.53,0.11,2.04
		c-0.51-0.06-1.51-0.18-2.01-0.24C1354.52,744.14,1314.3199,686.39,1268.89,633.06z"/>
	<path opacity="0.94" fill="#F08541" stroke="#F08541" stroke-width="0.4" enable-background="new    " d="M1271.84,633.03
		c0.5701-0.03,1.7201-0.09,2.29-0.1201c31.3199,2.28,62.26,12.72,88.2,30.38c3.0701,6.66,13.26,9.63,13.49,17.41
		c-12.4299,12.4-30.12,20.5-40.4099,34.55c-0.9401-1.51-3.02-2.9-2.2201-4.89c12.9601-8.9,25.4401-18.56,37.4401-28.72
		c3.38-4.43-3.85-8.98-6.55-11.69C1338.48,646.91,1304.48,639.01,1271.84,633.03z"/>
	<path fill="#978E87" stroke="#978E87" stroke-width="0.4" d="M852.92,748.89c43.41-24.66,88.33-46.99,135.02-64.83
		c0.05,0.5,0.16,1.5,0.21,1.99c-46,19.17-92.38,39.44-134.47,65.9c25.38,8.97,51,19.07,72.08,36.33
		c8.94,7.84,14.11,20.1899,11.63,32.0699c-6.87,42.31-29.55,79.61-51.23,115.86c7.83,9.36,22.35,16.28,29.89,27.75
		c5.66,7.06,10.99,18.58,2.87,26.02c-13.63,5.61-27.36-2.32-38.9-9.01c-12.68-10.53-30.95-22.89-28.73-41.53
		c15.87-30.7,26.07-64.23,38.57-96.48c2.69-11.1,13.63-31.26-4.39-33.47c-35.33-8.93-72.1-8.72-108.23-11.41
		c-0.64-0.3-1.93-0.89-2.58-1.19c34.26-1.34,68.71,3.09,102.66,7.87c7.35,3.44,18.27,2.56,21.66,11.36
		c-7.04,35.86-23.3,69.09-35.52,103.41c-4.8,11.41-17.05,25.0099-5.51,36.66c9.9,15.42,25.65,25.9,42.5,32.4
		c8.8,2.67,24.52,1.5,19.79-11.79c-5.76-16.68-20.35-28.41-35.33-36.63c-0.71-1.08-1.41-2.16-1.94-3.31
		c22.11-36.13,45.39-73.69,51.73-116.19c4.54-20.31-11.67-34.26-27.49-42.94c-14.63-7.91-29.56-15.49-45.45-20.59
		C857.7,754.94,846.49,754.83,852.92,748.89z"/>
	<path fill="#FAC3AE" stroke="#FAC3AE" stroke-width="0.4" d="M974.07,823.02c24.1-43.84,73.16-72.68,122.93-73.11
		c43.67-1.5,86.92,18.89,114.96,52.22c0.73,1.33,1.36,2.71,2,4.11c-26.08-30.61-63.0699-51.45-103.46-54.6
		c-49.24-3.23-100.46,20.11-128.19,61.6c-32.87,46.33-32.8,111.82-2.92,159.59c-0.61-0.24-1.83-0.71-2.44-0.94
		C949.16,927.12,947.06,868.72,974.07,823.02z"/>
	<path fill="#FD9872" stroke="#FD9872" stroke-width="0.4" d="M982.31,813.24c27.73-41.49,78.95-64.83,128.19-61.6
		c40.39,3.15,77.38,23.99,103.46,54.6c35.11,41.19,39.9601,103.14,16.67,151.24c-19.91,40.81-59.71,71.8301-104.5699,79.64
		c-43.3501,7.09-91.77-4.3-123.16-36.14c36.27,30.14,86.5599,44.04,132.6699,31.8101c40.8601-9.84,76.2401-39.35,93.87-77.4401
		c22.2001-47.2,16.76-107.64-16.7999-148.1c-6.12,0.02-10.03,8.13-15.47,10.92c7.1499,13.47,16.62,25.99,20.25,41.1
		c13.95,44.95-0.5901,98.54-38.14,127.92l-0.38-1.09c13.1699-12.71,25.02-26.94,32.2-43.94c14.62-32.52,13.6-72.2-4.0599-103.36
		c-3.64-5.6-6.77-11.54-10.73-16.92c-4.66-7.17-10.7101-13.27-17.1201-18.86c-41.5499-40.09-115.0099-40.18-157.4-0.98
		c-5.49,5.04-10.85,10.23-15.84,15.77c-34.27,39.39-38.09,103.65-5.9,145.24c2.01,2.05,3.92,4.2,5.77,6.42
		c0.46,0.7,0.94,1.42,1.43,2.15c0.6,1.44,1.2,2.9,1.84,4.35c-6.45-12.62-15.4,0.05-22.23,5c2.23,3.8101,5.33,7.13,7.21,11.19
		c-6.65-4.92-10.49-12.43-14.68-19.33C949.51,925.06,949.44,859.57,982.31,813.24z"/>
	<path fill="#F5CBBA" stroke="#F5CBBA" stroke-width="0.4" d="M1021.79,802.04c42.3901-39.2,115.85-39.11,157.4,0.98
		c-32.95-25.63-78.7899-36.99-118.6499-21.56C1046.4399,785.8,1034.24,794.56,1021.79,802.04z"/>
	<path fill="#ECF9FE" stroke="#ECF9FE" stroke-width="0.4" d="M1060.54,781.46c39.86-15.43,85.7-4.07,118.6499,21.56
		c6.41,5.59,12.4601,11.69,17.1201,18.86C1132.73,870.97,1069.7,920.78,1005.82,969.47c-1.85-2.22-3.76-4.37-5.77-6.42
		c-22.33-36.83-28.16-84.92-6.59-123.49c2.67-8.09,10.31-13.61,12.49-21.75c4.99-5.54,10.35-10.73,15.84-15.77
		C1034.24,794.56,1046.4399,785.8,1060.54,781.46z"/>
	<path fill="#FF5B30" stroke="#FF5B30" stroke-width="0.4" d="M1197.17,818.17c5.4399-2.79,9.35-10.9,15.47-10.92
		c33.5599,40.46,39,100.9,16.7999,148.1c-17.6299,38.09-53.0099,67.6-93.87,77.4401c-46.11,12.23-96.3999-1.67-132.6699-31.8101
		c-3.31-2.55-6.08-5.73-8.83-8.82c-1.88-4.06-4.98-7.3799-7.21-11.19c6.83-4.95,15.78-17.62,22.23-5
		c12.06,13.61,27.5999,24.59,44.57,31.2c33.73,16.27,79.4299,13.21,110.59-9.11c5.1899-3.34,10.58-6.54,15.03-10.87
		c37.5499-29.38,52.09-82.97,38.14-127.92C1213.79,844.16,1204.3199,831.64,1197.17,818.17z"/>
	<path fill="#F5C9B8" stroke="#F5C9B8" stroke-width="0.4" d="M1000.05,963.05c-32.19-41.59-28.37-105.85,5.9-145.24
		c-2.18,8.14-9.82,13.66-12.49,21.75C971.89,878.13,977.72,926.22,1000.05,963.05z"/>
	<path fill="#DAF4FE" stroke="#DAF4FE" stroke-width="0.4" d="M1196.3101,821.88c3.96,5.38,7.09,11.32,10.73,16.92
		c10.8999,28.37,18.47,60.05,7.6899,90.1c-2.08,4.14-2.8199,8.74-3.63,13.2599c-7.1799,17-19.03,31.23-32.2,43.94
		c-31.8101,25.13-75.53,35.19-114.4501,22.64c-22.2899-5.97-41.73-20.34-57.2-37.12c-0.49-0.73-0.97-1.45-1.43-2.15
		C1069.7,920.78,1132.73,870.97,1196.3101,821.88z"/>
	<path opacity="0.84" fill="#AA8A6C" stroke="#AA8A6C" stroke-width="0.4" enable-background="new    " d="M608.01,830.88
		c0.67-2.8,1.42-5.61,2.76-8.17c13.58,2.0099,28.28-1.21,41.16,4.09c-0.08,8.2,1.62,16.27,2.93,24.34c0.05,0.5,0.15,1.49,0.2,1.99
		c-1.01-0.78-2.03-1.53-3.03-2.3c-2.95-7.93,4.9399-25.5-8.98-23.96c-10.35-1.04-21.16-3.14-31.33-1.22
		c-4.93,7.55-3.8199,17.7-8.68,25.3199c-0.57,0.23-1.69,0.67-2.2599,0.9c0.16-0.36,0.49-1.07,0.65-1.43
		C604.42,844.23,606.11,837.48,608.01,830.88z"/>
	<path fill="#FECEA1" stroke="#FECEA1" stroke-width="0.4" d="M611.72,825.65c10.17-1.92,20.98,0.18,31.33,1.22
		c13.92-1.54,6.03,16.03,8.98,23.96c0.21,11.7-0.7401,23.37-1.16,35.06c-0.42,2.72-3.65,4.12-5.54,1.74
		c-0.34-9.77-1.92-19.47-5.58-28.57c-1.59-0.04-3.82-0.71-4.48,1.28c-4.6,14.8-2.9,30.43-3.36,45.68c-11.8,1-22.4-6.67-29.94-15
		c-3.93-12.96-1.87-27.04,1.07-40.05C607.9,843.35,606.79,833.2,611.72,825.65z"/>
	<path fill="#E6C1BB" stroke="#E6C1BB" stroke-width="0.4" d="M1207.04,838.8c17.6599,31.16,18.6799,70.84,4.0599,103.36
		c0.8101-4.52,1.55-9.12,3.63-13.2599C1225.51,898.85,1217.9399,867.17,1207.04,838.8z"/>
	<path fill="#FE5A2F" stroke="#FE5A2F" stroke-width="0.4" d="M532.18,857.36c20.96-10.55,45.2-5.27,67.78-4.26
		c-1.26,15.25-8.55,36.4301,7.81,46.04c7.17,4.15,16.4,12.12,25.07,7.71c3.74-14.13-2.09-32.89,5.14-45.99
		c4.66,7.66,3.45,18.72,5.38,27.78c1.64,4.11,9.27,3.65,9.06-1.28c-0.48-11.57,2.7-22.72,2.64-34.23
		c16.08-0.22,32.17-0.2,48.26-0.03c-69.75,58.59-134.31,125.63-181.79,203.5801c-57.74,24.7899-113.79,54.7599-171.65,78.35
		C395.32,1059.21,444.93,985,491.92,909.79C504.9,892.07,512.5,869.08,532.18,857.36z"/>
	<path fill="#FE9569" stroke="#FE9569" stroke-width="0.4" d="M600.78,851.87c0.5699-0.23,1.6899-0.67,2.2599-0.9
		c-2.94,13.01-5,27.09-1.07,40.05c7.54,8.33,18.14,16,29.94,15c0.46-15.25-1.24-30.88,3.36-45.68c0.66-1.9901,2.89-1.32,4.48-1.28
		c3.66,9.1,5.24,18.8,5.58,28.57c1.89,2.38,5.12,0.98,5.54-1.74c0.42-11.69,1.37-23.36,1.16-35.06c1,0.77,2.02,1.52,3.03,2.3
		c0.06,11.51-3.12,22.66-2.64,34.23c0.21,4.93-7.42,5.39-9.06,1.28c-1.93-9.06-0.72-20.12-5.38-27.78
		c-7.23,13.1-1.4,31.86-5.14,45.99c-8.67,4.41-17.9-3.56-25.07-7.71c-16.36-9.61-9.07-30.79-7.81-46.04
		C600.16,852.79,600.58,852.17,600.78,851.87z"/>
	<path fill="#F6AD84" stroke="#F6AD84" stroke-width="0.4" d="M703.32,853.1h1.09l0.97,0.13c-69.28,58.53-132.48,125.28-181.26,202
		c0.39,7.9301,10.31,12.03,11.91,19.9c-5.29-5.78-9.95-12.1-14.5-18.45C569.01,978.73,633.57,911.69,703.32,853.1z"/>
	<path fill="#0F0E0E" stroke="#0F0E0E" stroke-width="0.4" d="M857.95,956.19c-3.46-7.5-6.09-17.18,1.2-23.18
		c8.79,1.48,19.34-0.19,25.7599,7.16c14.98,8.22,29.57,19.95,35.33,36.63c4.73,13.29-10.99,14.46-19.79,11.79
		C883.6,982.09,867.85,971.61,857.95,956.19z"/>
	<path fill="#E9B7AC" stroke="#E9B7AC" stroke-width="0.4" d="M1007.25,971.62c15.47,16.78,34.91,31.15,57.2,37.12
		c38.92,12.55,82.64,2.49,114.4501-22.64l0.38,1.09c-4.4501,4.33-9.8401,7.53-15.03,10.87c-33.21,19.28-74.62,23.08-110.59,9.11
		c-16.9701-6.61-32.51-17.59-44.57-31.2C1008.45,974.52,1007.85,973.06,1007.25,971.62z"/>
	<path fill="#F4896F" stroke="#F4896F" stroke-width="0.4" d="M1053.66,1007.17c35.97,13.97,77.38,10.17,110.59-9.11
		C1133.09,1020.38,1087.39,1023.44,1053.66,1007.17z"/>
	<path fill="#F7A983" stroke="#F7A983" stroke-width="0.4" d="M550.95,1093.85c36.38,43.78,69.98,90.02,105.72,134.41
		c10.8,15.73,24.31,29.4399,34.36,45.71C643.88,1217.3,599.72,1157.96,554.26,1099.91C553.15,1097.89,552.01,1095.88,550.95,1093.85
		z"/>
	<path fill="#FD5B30" stroke="#FD5B30" stroke-width="0.4" d="M554.26,1099.91c45.46,58.0499,89.62,117.39,136.77,174.0599
		c23.11,32.86,48.67,64.4,74.04,95.5701c-1.04,0.71-2.05,1.49-2.99,2.35c-2.31,2.08-4.57,4.22-6.88,6.2999
		c-0.44-0.0699-1.33-0.21-1.77-0.2799c-12.28-15.85-23.59-32.5701-37.02-47.4701c-0.65-2.0199-1.72-4.4099-4.3-3.4299
		c-7.8,5.91-15.68,11.83-23.25,18.0599c-11.66-8.58-17.23-24.46-28.65-33.75c-7.38-8.34-13.69-17.5599-20.36-26.46
		c-1.0699-1.24-2.41-2.2-3.67-3.1899c-1.29-2.3-2.53-4.62-3.89-6.87c-1.2599-2.42-3.49-3.9701-5.44-5.7001
		c-3.41-5.76-6.65-11.8099-11.61-16.39c-1.84-1.7999-3.82-3.4099-5.87-4.9299c-0.91-2.5801-2.32-4.9301-4.08-6.99
		c-6.36-7.92-13.03-15.5701-18.8-23.92c-7.25-13.4-19.18-23.6801-26.67-36.8099c6.54-7.8301,20.11-11.2001,23.18-20.91
		c-11.43-16.6801-24.38-32.49-37.05-48.26C546.79,1106.03,555.15,1105.78,554.26,1099.91z"/>
	<path opacity="0.15" fill="#272727" stroke="#272727" stroke-width="0.4" enable-background="new    " d="M435.73,1207.83
		c42.47-8.08,87.52-5.11,129.56,3.9701C522.57,1205.4,478.82,1202.28,435.73,1207.83z"/>
	<path opacity="0.31" fill="#4F4F4F" stroke="#4F4F4F" stroke-width="0.4" enable-background="new    " d="M435.73,1207.83
		c43.09-5.5499,86.84-2.4299,129.56,3.9701c5.68-0.5701,14.37,5.6399,17.64,2.5199c0.84,0.9,1.67,1.8101,2.55,2.7201
		c-16.36,0.12-32.64-6.9601-49.41-7.1901c-60.82-8.7899-124.3-1.49-181.11,22.09c-76.56,31.5701-135.1,100.04-161.99,177.1801
		c16.81-7.4,35.55-10.1801,54.02-9.16c2.65-1.71,8.37,1.37,6.76,4.7201c-28.76,35.6899-51.58,76.84-63.77,121.1699
		c-5.83,17.12-3.77,36.4-10.76,52.67l-0.92-0.4401c5.53-63.49,32.5-124.5399,73.37-173.33c-2.43-6.79-14.1-0.96-19.62-2.54
		c-14.87-0.2899-28.64,6.67-42.52,9.37c21.28-61.8199,62.2-118.36,116.56-155.49C344.6,1229.9301,389.53,1213.4399,435.73,1207.83z"
		/>
	<path opacity="0.6" fill="#999999" stroke="#999999" stroke-width="0.4" enable-background="new    " d="M354.96,1231.9399
		c56.81-23.58,120.29-30.8799,181.11-22.09c16.77,0.23,33.05,7.3101,49.41,7.1901l1.01-0.17c5.77,8.35,12.44,16,18.8,23.92
		c0.69,3.35,0.15,6.12-5.08,3.89c-21.95-2.04-44.83-3.4301-65.72,4.88c-29.79,10.1799-51.59,36.0199-63.47,64.3899
		c2.99,7.03,20.43-7.88,18.56,3.6001c-13.87,16.45-21.17,37.95-21.48,59.3099c1.04,9.1901,12.9,8.12,19.71,9.4401
		c17.73,2.98,34.89-3.91,51.84-7.0701c2.59,4.67-7.97,10.9401-5.12,17.22c39.9399-1.1599,77.62-27.5299,91.83-65.1799
		c5.79-14.55,9.76-30,10.16-45.7001c1.09-0.3099,2.2-0.5399,3.33-0.71c6.67,8.9,12.98,18.12,20.36,26.46
		c-5.44,31.5601-5.43,65.5701-16.55,96.37c-0.94,2.17-1.75,8.65,2.14,5.5901c3.07-3.17,6.11-6.39,8.47-10.12
		c19.69-23.9301,40-47.38,60.25-70.8301c0.48-0.47,1.42-1.4199,1.89-1.89c-0.03,0.5601-0.1,1.6901-0.14,2.25
		c-25.8,30.25-50.56,61.5801-78.05,90.28c-10.25,9.13-19.29,20.75-27.55,31.98c-11.73,14.12-23.86,27.9301-35.42,42.1901
		c-4.79,4.62-12,1.49-17.76,1.33c-71.71-12.97-143.38-28.2899-215.35-39.38c-4.05,1.5801-7.77,4.3201-10.26,7.9301
		c-6.64,5.4199-14.33,9.41-20.81,15.02c-24.22,15.61-47.46,33.5-70.02,51.0399c-19.78,13.17-39.75,26.9701-57.87,42.25
		c-1.16,1.4501-2.34,2.9-3.78,4.1001l-0.18-0.91c6.99-16.27,4.93-35.55,10.76-52.67c12.19-44.33,35.01-85.48,63.77-121.1699
		c1.61-3.3501-4.11-6.4301-6.76-4.7201c-18.47-1.02-37.21,1.76-54.02,9.16C219.86,1331.98,278.4,1263.51,354.96,1231.9399z"/>
	<path opacity="0.8" fill="#CCB782" stroke="#CCB782" stroke-width="0.4" enable-background="new    " d="M605.29,1240.79
		c1.76,2.0599,3.17,4.4099,4.08,6.99c-32.48-4.73-69.66-4.5801-97.89,15.76c-16.22,12.5299-31.27,29.27-36.57,49.5
		c5.46,0.2,17.36-6.04,17.82,1.64c-11.67,17.73-22.79,37.3099-21.87,59.33c-3.28,9.67,10.42,8.42,16.07,10.1799
		c18.13,2.5,36.1-2.5299,53-8.1c6.91,4.1901-3.84,12.5701-3.24,17.29c38.31-0.27,74.55-26.97,87.94-62.87
		c6.41-15.6,8.33-32.42,11.55-48.84c1.26,0.99,2.6,1.95,3.67,3.1899c-1.13,0.17-2.24,0.4-3.33,0.71
		c-0.4,15.7001-4.37,31.15-10.16,45.7001c-14.21,37.65-51.89,64.02-91.83,65.1799c-2.85-6.2799,7.71-12.5499,5.12-17.22
		c-16.95,3.16-34.11,10.05-51.84,7.0701c-6.81-1.3201-18.67-0.25-19.71-9.4401c0.31-21.36,7.61-42.86,21.48-59.3099
		c1.87-11.4801-15.57,3.4299-18.56-3.6001c11.88-28.37,33.68-54.21,63.47-64.3899c20.89-8.3101,43.77-6.92,65.72-4.88
		C605.44,1246.91,605.98,1244.14,605.29,1240.79z"/>
	<path fill="#FED564" stroke="#FED564" stroke-width="0.4" d="M511.48,1263.54c28.23-20.3401,65.41-20.49,97.89-15.76
		c2.05,1.52,4.03,3.13,5.87,4.9299c-19-0.1799-36.56,12.11-50.85,23.7201c-19.99,17.6799-34.91,40.2999-47.29,63.73
		c-2.69,4.25,2.47,7.73,5.75,5.73c40.13-8.47,83.73-24.14,106.11-60.9401c2.2599-2.9399,3.36-6.46,3.33-10.1499
		c1.36,2.25,2.6,4.5699,3.89,6.87c-3.22,16.4199-5.14,33.24-11.55,48.84c-13.39,35.9-49.63,62.6-87.94,62.87
		c-0.6-4.72,10.15-13.1,3.24-17.29c-16.9,5.5701-34.87,10.6-53,8.1c-5.65-1.7599-19.35-0.5099-16.07-10.1799
		c-0.92-22.02,10.2-41.6,21.87-59.33c-0.46-7.6801-12.36-1.4401-17.82-1.64C480.21,1292.8101,495.26,1276.0699,511.48,1263.54z"/>
	<path fill="#FFDD8B" stroke="#FFDD8B" stroke-width="0.4" d="M564.39,1276.4301c14.29-11.6101,31.85-23.9,50.85-23.7201
		c4.96,4.5801,8.2,10.63,11.61,16.39c-4.97-4.21-7.5699-10.3099-12.16-14.77c-45.74,7.0601-75.49,48.14-95.33,86.4801
		c1.25,5.46,9.88,0.3999,13.21,0.6299c37.55-9.5099,78.73-25.95,97.27-62.6c3.08-3.5599-1.42-6.7-2.9901-9.74
		c1.95,1.73,4.1801,3.28,5.44,5.7001c0.03,3.6899-1.07,7.21-3.33,10.1499c-22.38,36.8-65.98,52.4701-106.11,60.9401
		c-3.28,2-8.44-1.48-5.75-5.73C529.48,1316.73,544.4,1294.11,564.39,1276.4301z"/>
	<path fill="#FFEBB8" stroke="#FFEBB8" stroke-width="0.4" d="M519.36,1340.8101c19.84-38.3401,49.59-79.42,95.33-86.4801
		c4.59,4.4601,7.19,10.5601,12.16,14.77c1.57,3.04,6.07,6.1801,2.9901,9.74c-18.54,36.65-59.72,53.0901-97.27,62.6
		C529.24,1341.21,520.61,1346.27,519.36,1340.8101z"/>
	<path opacity="0.34" fill="#4F4B4A" stroke="#4F4B4A" stroke-width="0.4" enable-background="new    " d="M1080.92,1264.78
		c0.5599-0.17,1.6799-0.51,2.24-0.67C1082.6,1264.27,1081.48,1264.61,1080.92,1264.78z"/>
	<path fill="#F49C85" stroke="#F49C85" stroke-width="0.4" d="M691.03,1273.97c26.49,30.99,50.02,64.52,75.84,96.12
		c-0.45-0.14-1.35-0.4099-1.8-0.5499C739.7,1338.37,714.14,1306.83,691.03,1273.97z"/>
	<path fill="#F49D86" stroke="#F49D86" stroke-width="0.4" d="M822.05,1410.09c79.62-28.95,154.34-70.6,223.04-120.0499
		c-0.02,0.49-0.0599,1.45-0.0699,1.9299c-0.24,0.27-0.7001,0.8201-0.9301,1.0901C969.78,1345.27,889.41,1391.71,802.31,1418.33
		c-0.03-0.5499-0.09-1.63-0.12-2.1699C809.17,1415.63,815.32,1411.76,822.05,1410.09z"/>
	<path fill="#FE5A2F" stroke="#FE5A2F" stroke-width="0.4" d="M802.31,1418.33c87.1-26.62,167.47-73.0599,241.78-125.2699
		c-10.1599,48.1299-22.33,95.7699-33.37,143.7599c-5.28,15.41-18.09,28.2001-33.6299,33.2201
		c-96.53,31.8999-193.35,62.97-289.7,95.2c-4.13,1.85-5.45,1.24-3.94-1.83C723.15,1515.14,763.23,1467.03,802.31,1418.33z"/>
	<path opacity="0.44" fill="#6E6D6C" stroke="#6E6D6C" stroke-width="0.4" enable-background="new    " d="M643.66,1407.6899
		c11.1201-30.7999,11.11-64.8099,16.55-96.37c-0.06,0.52-0.18,1.5601-0.2401,2.0701c-1.03,26.62-4.41,53.21-10.3799,79.23
		c0.11,7-7.15,14.84-3.79,20.66C641.91,1416.34,642.72,1409.86,643.66,1407.6899z"/>
	<path opacity="0.53" fill="#862E17" stroke="#862E17" stroke-width="0.4" enable-background="new    " d="M660.21,1311.3199
		c11.42,9.29,16.99,25.17,28.65,33.75c7.57-6.23,15.45-12.1499,23.25-18.0599c2.58-0.98,3.65,1.41,4.3,3.4299
		c-0.47,0.4701-1.41,1.42-1.89,1.89c0.03-1.84-0.53-2.95-1.69-3.33c-9.15,4.6899-16.14,16.4301-26.53,17.85
		c-8.21-9.62-15.72-19.85-22.99-30.2c-0.84-1.35-2.12-2.3201-3.34-3.26C660.03,1312.88,660.15,1311.84,660.21,1311.3199z"/>
	<path fill="#FEAD97" stroke="#FEAD97" stroke-width="0.4" d="M716.41,1330.4399c13.4301,14.9,24.7401,31.6201,37.02,47.4701
		c-0.3,0.3099-0.89,0.9299-1.19,1.24c-11.79-15.65-24.06-30.92-35.97-46.4601C716.31,1332.13,716.38,1331,716.41,1330.4399z"/>
	<path fill="#FEFEFE" stroke="#FEFEFE" stroke-width="0.4" d="M716.27,1332.6899c11.91,15.54,24.18,30.8101,35.97,46.4601
		c-53.07,61.45-105.43,123.58-157.74,185.65c-8.72-0.88-17.35-3.1101-26.17-4.05c-63.85-12.01-129.83-23.97-194.58-36.54
		c-6.44,0-14.33-4.6-20.23-0.6599c-37.12,28.36-76.47,54.11-112.59,83.5399c-5.22,2.92-11.33,4.9701-15.05,9.9401
		c-5.08,4.1699-10.85,7.47-15.68,11.97c-29.93,18.7-58.15,41.45-87.06,62.1801c-6.61,5.8999-16.83,8.62-20.76,16.8199H5.39
		c7.46-10.5699,21.47-15.6899,30.99-24.64c47.76-34.52,95.23-69.47,143.02-103.9299c1.44-1.2001,2.62-2.65,3.78-4.1001
		c19.89-12.87,39.89-27.11,57.87-42.25c23.81-15.72,48.03-32.48,70.02-51.0399c6.48-5.61,14.17-9.6001,20.81-15.02
		c14.67-12.62,33.23,0.28,49.62,0.6c62.86,10.96,125.46,24.4301,188.49,34.37c2.98,0.3101,4.37-2.54,5.26-4.85
		c11.56-14.26,23.69-28.0701,35.42-42.1901c9.9-9.09,20.05-20.48,27.55-31.98C665.71,1394.27,690.47,1362.9399,716.27,1332.6899z"/>
	<path opacity="0.6" fill="#999999" stroke="#999999" stroke-width="0.4" enable-background="new    " d="M753.43,1377.91
		c0.44,0.0699,1.33,0.21,1.77,0.2799c-2.4,3.52-5.27,6.67-8.09,9.8601c-5.77,5.88-11.94,11.76-16.13,18.9199
		c-10.15,10.1901-19.7,21.3401-28,33.02c-8.13,8.5601-16.54,17.21-23.05,27.0701c-6.46,8.36-13.47,16.2699-20.59,24.08
		c-9.55,9.61-17.98,20.3099-26.15,31.1c-11.91,14.3201-24.51,28.0701-35.93,42.8201c-12.79,5.3799-27.83-7.7201-40.88-2.8501
		c-49.95,46.8201-117.12,71.63-184.42,78.7001c-1.36,0.21-4.04-0.73-2.29-2.26c11.28-15.6801,20.23-33.4601,23.41-52.67
		c0.14-1.61-1.16-2.74-2.15-3.76c-48.33,21.5-101.83,30.9601-154.35,29.3401c-3.72,1.49-7.11,3.6799-10.7,5.47
		c3.72-4.97,9.83-7.02,15.05-9.9401c27.08-17.0499,51.77-37.89,78.28-55.9399c14.12-8.0701,25.4-22.72,40.83-27.15
		c69.58,11.5,138.28,28.45,208.29,36.75c8.82,0.9399,17.45,3.17,26.17,4.05c52.31-62.0701,104.67-124.2001,157.74-185.65
		C752.54,1378.84,753.13,1378.22,753.43,1377.91z"/>
	<path opacity="0.8" fill="#CBCBCB" stroke="#CBCBCB" stroke-width="0.4" enable-background="new    " d="M610.67,1454.95
		c8.26-11.23,17.3-22.85,27.55-31.98C630.72,1434.47,620.57,1445.86,610.67,1454.95z"/>
	<path opacity="0.8" fill="#CCCCCC" stroke="#CCCCCC" stroke-width="0.4" enable-background="new    " d="M331.88,1467.02
		c2.49-3.61,6.21-6.35,10.26-7.9301c71.97,11.0901,143.64,26.41,215.35,39.38c5.76,0.16,12.97,3.29,17.76-1.33
		c-0.89,2.3099-2.28,5.16-5.26,4.85c-63.03-9.9399-125.63-23.41-188.49-34.37C365.11,1467.3,346.55,1454.4,331.88,1467.02z"/>
	<path opacity="0.8" fill="#CDCDCD" stroke="#CDCDCD" stroke-width="0.4" enable-background="new    " d="M241.05,1533.08
		c22.56-17.5399,45.8-35.4299,70.02-51.0399C289.08,1500.6,264.86,1517.36,241.05,1533.08z"/>
	<path opacity="0.27" fill="#464646" stroke="#464646" stroke-width="0.4" enable-background="new    " d="M633.19,1522.24
		c8.17-10.79,16.6-21.49,26.15-31.1C652.73,1502.91,642.32,1512.41,633.19,1522.24z"/>
	<path opacity="0.8" fill="#CCCCCC" stroke="#CCCCCC" stroke-width="0.4" enable-background="new    " d="M353.52,1523.55
		c5.9-3.9401,13.79,0.6599,20.23,0.6599c64.75,12.5701,130.73,24.53,194.58,36.54c-70.01-8.3-138.71-25.25-208.29-36.75
		c-15.43,4.4301-26.71,19.08-40.83,27.15c-26.51,18.0499-51.2,38.89-78.28,55.9399C277.05,1577.66,316.4,1551.91,353.52,1523.55z"/>
	<path opacity="0.81" fill="#CECECE" stroke="#CECECE" stroke-width="0.4" enable-background="new    " d="M183.18,1575.33
		c18.12-15.2799,38.09-29.08,57.87-42.25C223.07,1548.22,203.07,1562.46,183.18,1575.33z"/>
	<path opacity="0.3" fill="#4D4D4D" stroke="#4D4D4D" stroke-width="0.4" enable-background="new    " d="M556.38,1562.21
		c13.05-4.87,28.09,8.23,40.88,2.8501c-11.45,9.24-31.31-10.25-43.62,1.62c-49.93,47.1899-118.29,70-185.36,77.6399
		c-3.17,1.7301-3.96-3.2899-1.96-5c11.9-15.1899,20.97-33.1499,23.72-52.36c-7.14-0.12-13.15,4.17-19.82,6.28
		c-42.83,15.33-88.87,22.99-134.37,20.52c-15.25,6.97-26.66,21.35-41.93,28.1899c4.5-5.4099,11.73-7.59,16.28-12.95
		c4.83-4.5,10.6-7.8,15.68-11.97c3.59-1.79,6.98-3.98,10.7-5.47c52.52,1.62,106.02-7.8401,154.35-29.3401
		c0.99,1.02,2.29,2.15,2.15,3.76c-3.18,19.21-12.13,36.99-23.41,52.67c-1.75,1.53,0.93,2.47,2.29,2.26
		C439.26,1633.84,506.43,1609.03,556.38,1562.21z"/>
	<path opacity="0.48" fill="#7B7B7B" stroke="#7B7B7B" stroke-width="0.4" enable-background="new    " d="M11.89,1698.88
		c55.35-40.41,110.29-81.49,166.41-120.8l0.92,0.4401l0.18,0.91c-47.79,34.46-95.26,69.4099-143.02,103.9299
		c-9.52,8.9501-23.53,14.0701-30.99,24.64h-3.9C2.66,1703,8.39,1701.78,11.89,1698.88z"/>
	<path opacity="0.65" fill="#A7A7A7" stroke="#A7A7A7" stroke-width="0.4" enable-background="new    " d="M123.14,1691.1801
		C152.05,1670.45,180.27,1647.7,210.2,1629c-4.55,5.36-11.78,7.54-16.28,12.95c-19.99,13.78-39.86,27.9701-58.9,43.0801
		c-4.03,2.1799-7.85,4.78-11.79,7.15L123.14,1691.1801z"/>
	<path opacity="0.29" fill="#4B4B4B" stroke="#4B4B4B" stroke-width="0.4" enable-background="new    " d="M135.02,1685.03
		c19.04-15.11,38.91-29.3,58.9-43.0801C175.51,1657.47,155.33,1672.23,135.02,1685.03z"/>
	<path opacity="0.32" fill="#515151" stroke="#515151" stroke-width="0.4" enable-background="new    " d="M123.23,1692.1801
		c3.94-2.37,7.76-4.9701,11.79-7.15c-8.04,9.4099-20.66,13.64-28.73,22.97h-1.95C109.35,1701.2,117.61,1698.29,123.23,1692.1801z"/>
	<path opacity="0.68" fill="#ADADAD" stroke="#ADADAD" stroke-width="0.4" enable-background="new    " d="M102.38,1708
		c3.93-8.2,14.15-10.92,20.76-16.8199l0.09,1c-5.62,6.11-13.88,9.0199-18.89,15.8199H102.38z"/>
</g>
</svg>
